<svg width="24" height="24" viewBox="0 0 24 24" fill="none" xmlns="http://www.w3.org/2000/svg">
<path fill-rule="evenodd" clip-rule="evenodd" d="M12 3C7.02944 3 3 7.02944 3 12C3 13.8502 3.5583 15.57 4.51563 17.0001C5.50688 15.5192 6.92696 14.348 8.5988 13.665C7.61536 12.7519 7 11.4478 7 10C7 7.23858 9.23858 5 12 5C14.7614 5 17 7.23858 17 10C17 11.4478 16.3846 12.7519 15.4012 13.665C17.073 14.348 18.4931 15.5192 19.4844 17.0001C20.4417 15.57 21 13.8502 21 12C21 7.02944 16.9706 3 12 3ZM18.1199 18.599C16.9228 16.45 14.63 15 12 15C9.36995 15 7.07721 16.45 5.88006 18.599C7.48594 20.089 9.63658 21 12 21C14.3634 21 16.5141 20.089 18.1199 18.599ZM12 13C13.6569 13 15 11.6569 15 10C15 8.34315 13.6569 7 12 7C10.3431 7 9 8.34315 9 10C9 11.6569 10.3431 13 12 13ZM1 12C1 5.92487 5.92487 1 12 1C18.0751 1 23 5.92487 23 12C23 18.0751 18.0751 23 12 23C5.92487 23 1 18.0751 1 12Z" fill="#757575"/>
</svg>
