<svg width="24" height="24" viewBox="0 0 24 24" fill="none" xmlns="http://www.w3.org/2000/svg">
<path fill-rule="evenodd" clip-rule="evenodd" d="M7.55971 5C5.59374 5 4 6.59374 4 8.55971V9.5208C4 10.8121 4.55221 12.0418 5.51734 12.8997L12 18.662L18.4827 12.8997C19.4478 12.0418 20 10.8121 20 9.5208V8.55971C20 6.59374 18.4063 5 16.4403 5C15.2501 5 14.1386 5.59483 13.4784 6.58514L12.8866 7.47291C12.4648 8.10555 11.5352 8.10555 11.1134 7.47291L10.5216 6.58514C9.86137 5.59483 8.74992 5 7.55971 5ZM2 8.55971C2 5.48917 4.48917 3 7.55971 3C9.31122 3 10.9535 3.82478 12 5.21389C13.0465 3.82478 14.6888 3 16.4403 3C19.5108 3 22 5.48917 22 8.55971V9.5208C22 11.3834 21.2035 13.1571 19.8114 14.3945L13.3247 20.1605C12.5692 20.832 11.4308 20.832 10.6753 20.1605L4.18862 14.3945C2.7965 13.1571 2 11.3834 2 9.5208V8.55971Z" fill="#757575"/>
</svg>
