<svg width="32" height="32" viewBox="0 0 32 32" fill="none" xmlns="http://www.w3.org/2000/svg">
<path fill-rule="evenodd" clip-rule="evenodd" d="M17.4142 4.99985C16.6332 4.2188 15.3668 4.2188 14.5858 4.99985L9.29318 10.2925L9.2926 10.293L3.29289 16.2927C2.90237 16.6833 2.90237 17.3164 3.29289 17.707C3.68342 18.0975 4.31658 18.0975 4.70711 17.707L6.07244 16.3416C6.02502 16.5534 6 16.7737 6 16.9998C6 17.7682 6.28885 18.4691 6.7639 18.9999C6.28885 19.5306 6 20.2315 6 20.9998C6 21.7682 6.28885 22.4691 6.7639 22.9998C6.28885 23.5306 6 24.2315 6 24.9998C6 26.6567 7.34315 27.9998 9 27.9998H13H19H23C24.6569 27.9998 26 26.6567 26 24.9998C26 24.2315 25.7111 23.5306 25.2361 22.9998C25.7111 22.4691 26 21.7682 26 20.9998C26 20.2315 25.7111 19.5306 25.2361 18.9999C25.7111 18.4691 26 17.7682 26 16.9998C26 16.7737 25.975 16.5534 25.9276 16.3416L27.2929 17.707C27.6834 18.0975 28.3166 18.0975 28.7071 17.707C29.0976 17.3164 29.0976 16.6833 28.7071 16.2927L26 13.5856V7.99985C26 7.44756 25.5523 6.99985 25 6.99985C24.4477 6.99985 24 7.44756 24 7.99985V11.5856L22.7078 10.2935L22.7064 10.292L17.4142 4.99985ZM8.34178 14.0723L10.4142 11.9998L21.5858 11.9998L23.6582 14.0723C23.4464 14.0249 23.2261 13.9998 23 13.9998H9C8.77388 13.9998 8.5536 14.0249 8.34178 14.0723ZM16 6.41406L12.4142 9.99985L19.5858 9.99985L16 6.41406ZM24 16.9998C24 16.4476 23.5523 15.9998 23 15.9998H9C8.44772 15.9998 8 16.4476 8 16.9998C8 17.5521 8.44772 17.9998 9 17.9998H12.2676C12.6134 17.402 13.2597 16.9998 14 16.9998H18C18.7403 16.9998 19.3866 17.402 19.7324 17.9998H23C23.5523 17.9998 24 17.5521 24 16.9998ZM8 20.9998C8 20.4476 8.44772 19.9998 9 19.9998H12V21.9998H9C8.44772 21.9998 8 21.5521 8 20.9998ZM14 25.9998V22.9998V18.9998H18V22.9998V25.9998H14ZM23 21.9998H20V19.9998H23C23.5523 19.9998 24 20.4476 24 20.9998C24 21.5521 23.5523 21.9998 23 21.9998ZM20 25.9998H23C23.5523 25.9998 24 25.5521 24 24.9998C24 24.4476 23.5523 23.9998 23 23.9998H20V25.9998ZM9 23.9998C8.44772 23.9998 8 24.4476 8 24.9998C8 25.5521 8.44772 25.9998 9 25.9998H12V23.9998H9Z" fill="black"/>
</svg>
