<svg width="32" height="32" viewBox="0 0 32 32" fill="none" xmlns="http://www.w3.org/2000/svg">
<path fill-rule="evenodd" clip-rule="evenodd" d="M18.0001 7C16.8955 7 16.0001 7.89543 16.0001 9C16.0001 9.55228 15.5524 10 15.0001 10C14.4478 10 14.0001 9.55228 14.0001 9C14.0001 6.79086 15.7909 5 18.0001 5C19.1948 5 20.2671 5.52376 21.0001 6.35418C21.733 5.52375 22.8054 5 24.0001 5C26.2092 5 28.0001 6.79086 28.0001 9C28.0001 9.55228 27.5524 10 27.0001 10C26.4478 10 26.0001 9.55228 26.0001 9C26.0001 7.89543 25.1046 7 24.0001 7C23.2551 7 22.6053 7.40726 22.2612 8.01127C22.3398 8.00381 22.4195 8 22.5001 8C23.8808 8 25.0001 9.11929 25.0001 10.5C25.0001 11.0523 24.5524 11.5 24.0001 11.5C23.4478 11.5 23.0001 11.0523 23.0001 10.5C23.0001 10.2239 22.7762 10 22.5001 10C22.2239 10 22.0001 10.2239 22.0001 10.5V10.8769C22.0001 13.6971 21.6542 16.5066 20.9702 19.2425C20.8363 19.7783 20.2933 20.1041 19.7575 19.9701C19.2217 19.8362 18.896 19.2933 19.0299 18.7575C19.6743 16.1801 20.0001 13.5335 20.0001 10.8769V10.5C20.0001 10.2239 19.7762 10 19.5001 10C19.2239 10 19.0001 10.2239 19.0001 10.5C19.0001 11.0523 18.5524 11.5 18.0001 11.5C17.4478 11.5 17.0001 11.0523 17.0001 10.5C17.0001 9.11929 18.1194 8 19.5001 8C19.5807 8 19.6604 8.00381 19.739 8.01127C19.3948 7.40726 18.745 7 18.0001 7ZM11.5175 7.57825C10.9429 7.04785 10.0572 7.04786 9.48265 7.57825L4.26148 12.3978C3.32911 13.2584 3.82901 14.7666 5.00007 14.9757V18C5.00007 19.1046 5.8955 20 7.00007 20H10.5001H14.0001C15.1046 20 16.0001 19.1046 16.0001 18V14.9757C17.1711 14.7666 17.671 13.2584 16.7387 12.3978L11.5175 7.57825ZM7.00007 15V18H9.50007V17C9.50007 16.4477 9.94779 16 10.5001 16C11.0524 16 11.5001 16.4477 11.5001 17V18H14.0001V15H7.00007ZM6.55772 13L10.5001 9.36091L14.4424 13H6.55772ZM7.05477 22.8321C7.6272 22.4504 8.37295 22.4504 8.94537 22.8321C10.1896 23.6615 11.8105 23.6615 13.0548 22.8321C13.6272 22.4504 14.3729 22.4504 14.9454 22.8321C16.1896 23.6615 17.8105 23.6615 19.0548 22.8321C19.6272 22.4504 20.3729 22.4504 20.9454 22.8321L22.4454 23.8321C22.9049 24.1384 23.5258 24.0142 23.8321 23.5547C24.1385 23.0952 24.0143 22.4743 23.5548 22.1679L22.0548 21.1679C20.8105 20.3385 19.1896 20.3385 17.9454 21.1679C17.3729 21.5496 16.6272 21.5496 16.0548 21.1679C14.8105 20.3385 13.1896 20.3385 11.9454 21.1679C11.3729 21.5496 10.6272 21.5496 10.0548 21.1679C8.81055 20.3385 7.1896 20.3385 5.94537 21.1679L4.44537 22.1679C3.98585 22.4743 3.86167 23.0952 4.16802 23.5547C4.47438 24.0142 5.09525 24.1384 5.55477 23.8321L7.05477 22.8321ZM7.05477 26.8321C7.6272 26.4504 8.37295 26.4504 8.94537 26.8321C10.1896 27.6615 11.8105 27.6615 13.0548 26.8321C13.6272 26.4504 14.3729 26.4504 14.9454 26.8321C16.1896 27.6615 17.8105 27.6615 19.0548 26.8321C19.6272 26.4504 20.3729 26.4504 20.9454 26.8321L22.4454 27.8321C22.9049 28.1384 23.5258 28.0142 23.8321 27.5547C24.1385 27.0952 24.0143 26.4743 23.5548 26.1679L22.0548 25.1679C20.8105 24.3385 19.1896 24.3385 17.9454 25.1679C17.3729 25.5496 16.6272 25.5496 16.0548 25.1679C14.8105 24.3385 13.1896 24.3385 11.9454 25.1679C11.3729 25.5496 10.6272 25.5496 10.0548 25.1679C8.81055 24.3385 7.1896 24.3385 5.94537 25.1679L4.44537 26.1679C3.98585 26.4743 3.86167 27.0952 4.16802 27.5547C4.47438 28.0142 5.09525 28.1384 5.55477 27.8321L7.05477 26.8321Z" fill="#757575"/>
</svg>
