<svg width="32" height="32" viewBox="0 0 32 32" fill="none" xmlns="http://www.w3.org/2000/svg">
<path fill-rule="evenodd" clip-rule="evenodd" d="M5 5C4.44772 5 4 5.44772 4 6V17V27C4 27.5523 4.44772 28 5 28H9.999C10.5517 28 10.9995 27.5522 11 27H25H27C27.5523 27 28 26.5523 28 26C28 25.4477 27.5523 25 27 25H26V24.001C26 24.0003 26 23.9997 26 23.999V20.001V19.999V9H27C27.5523 9 28 8.55228 28 8C28 7.44772 27.5523 7 27 7H25H13V6.0011C13 5.44792 12.5515 5 11.9989 5H5ZM24 21.5858V20.4142L22.5194 18.9336C22.1675 18.5818 21.6104 18.5422 21.2123 18.8408L19.8 19.9C18.7333 20.7 17.2667 20.7 16.2 19.9L14.6 18.7C14.2444 18.4333 13.7556 18.4333 13.4 18.7L10.8405 20.6197C10.9448 21.0628 11 21.525 11 22L12.2 21.1C13.2667 20.3 14.7333 20.3 15.8 21.1L17.4 22.3C17.7556 22.5667 18.2444 22.5667 18.6 22.3L20.0123 21.2408C21.2067 20.345 22.878 20.4638 23.9336 21.5194L24 21.5858ZM9 23.9899C8.99992 23.9971 8.99992 24.0044 9 24.0116V26H6V18.126C7.72523 18.5701 9 20.1362 9 22V23.9899ZM11 24.5L13.4 22.7C13.7556 22.4333 14.2444 22.4333 14.6 22.7L16.2 23.9C17.2667 24.7 18.7333 24.7 19.8 23.9L21.2123 22.8408C21.6104 22.5422 22.1675 22.5818 22.5194 22.9336L24 24.4142V25H11V24.5ZM10.0299 18.7276L12.2 17.1C13.2667 16.3 14.7333 16.3 15.8 17.1L17.4 18.3C17.7556 18.5667 18.2444 18.5667 18.6 18.3L20.0123 17.2408C21.2067 16.345 22.878 16.4638 23.9336 17.5194L24 17.5858V9H13V10C13 13.1405 11.1904 15.8583 8.55712 17.1677C9.13637 17.5948 9.63606 18.1235 10.0299 18.7276ZM6 7V15.917C8.83771 15.441 11 12.973 11 10V8V7H6ZM20 12C19.4477 12 19 12.4477 19 13C19 13.5523 19.4477 14 20 14C20.5523 14 21 13.5523 21 13C21 12.4477 20.5523 12 20 12ZM23 13C23 14.6569 21.6569 16 20 16C18.3431 16 17 14.6569 17 13C17 11.3431 18.3431 10 20 10C21.6569 10 23 11.3431 23 13Z" fill="#757575"/>
</svg>
