<svg width="32" height="32" viewBox="0 0 32 32" fill="none" xmlns="http://www.w3.org/2000/svg">
<path fill-rule="evenodd" clip-rule="evenodd" d="M21.3385 7C20.7252 7 20.1736 7.37343 19.9458 7.94291L18.3458 11.9429C17.9517 12.9282 18.6773 14 19.7385 14H21.5V16H18.7324C18.5568 15.6964 18.3036 15.4432 18 15.2676V9C18 7.89543 17.1046 7 16 7H6C4.89543 7 4 7.89543 4 9V15.2676C3.4022 15.6134 3 16.2597 3 17V23V25C3 25.5523 3.44772 26 4 26C4.55228 26 5 25.5523 5 25V24H17V25C17 25.5523 17.4477 26 18 26C18.5523 26 19 25.5523 19 25V24H26V25C26 25.5523 26.4477 26 27 26C27.5523 26 28 25.5523 28 25V23V18C28 16.8954 27.1046 16 26 16H23.5V14H25.2615C26.3227 14 27.0483 12.9282 26.6542 11.9429L25.0542 7.94291C24.8264 7.37343 24.2748 7 23.6615 7H21.3385ZM16 9V15H15V13C15 11.8954 14.1046 11 13 11H9C7.89543 11 7 11.8954 7 13V15H6V9H16ZM17 17H14H8H5V22H17V17ZM13 13V15H9V13H13ZM19 18V22H26V18H22.5H19ZM22.5 12H24.523L23.323 9H21.677L20.477 12H22.5ZM22 19C21.4477 19 21 19.4477 21 20C21 20.5523 21.4477 21 22 21H23C23.5523 21 24 20.5523 24 20C24 19.4477 23.5523 19 23 19H22Z" fill="#757575"/>
</svg>
